<svg xmlns="http://www.w3.org/2000/svg" xmlns:xlink="http://www.w3.org/1999/xlink" version="1.1" width="1000" height="1000" viewBox="0 0 1000 1000" xml:space="preserve">
<desc>Created with Fabric.js 3.5.0</desc>
<defs>
</defs>
<rect x="0" y="0" width="100%" height="100%" fill="rgba(255,255,255,0)"/>
<g transform="matrix(56.8182 0 0 56.8182 500.0001 500.0001)" id="894355">
<g style="" vector-effect="non-scaling-stroke">
		<g transform="matrix(1 0 0 1 0 0)">
<path style="stroke: none; stroke-width: 1; stroke-dasharray: none; stroke-linecap: butt; stroke-dashoffset: 0; stroke-linejoin: miter; stroke-miterlimit: 4; is-custom-font: none; font-file-url: none; fill: rgb(241,167,142); fill-rule: nonzero; opacity: 1;" transform=" translate(-8, -8)" d="M 2 2 a 2 2 0 0 0 -2 2 v 8.01 A 2 2 0 0 0 2 14 h 5.5 a 0.5 0.5 0 0 0 0 -1 H 2 a 1 1 0 0 1 -0.966 -0.741 l 5.64 -3.471 L 8 9.583 l 7 -4.2 V 8.5 a 0.5 0.5 0 0 0 1 0 V 4 a 2 2 0 0 0 -2 -2 H 2 Z m 3.708 6.208 L 1 11.105 V 5.383 l 4.708 2.825 Z M 1 4.217 V 4 a 1 1 0 0 1 1 -1 h 12 a 1 1 0 0 1 1 1 v 0.217 l -7 4.2 l -7 -4.2 Z" stroke-linecap="round"/>
</g>
		<g transform="matrix(1 0 0 1 4.417 4.5)">
<path style="stroke: none; stroke-width: 1; stroke-dasharray: none; stroke-linecap: butt; stroke-dashoffset: 0; stroke-linejoin: miter; stroke-miterlimit: 4; is-custom-font: none; font-file-url: none; fill: rgb(241,167,142); fill-rule: nonzero; opacity: 1;" transform=" translate(-12.417, -12.5)" d="M 14.247 14.269 c 1.01 0 1.587 -0.857 1.587 -2.025 v -0.21 C 15.834 10.43 14.64 9 12.52 9 h -0.035 C 10.42 9 9 10.36 9 12.432 v 0.214 C 9 14.82 10.438 16 12.358 16 h 0.044 c 0.594 0 1.018 -0.074 1.237 -0.175 v -0.73 c -0.245 0.11 -0.673 0.18 -1.18 0.18 h -0.044 c -1.334 0 -2.571 -0.788 -2.571 -2.655 v -0.157 c 0 -1.657 1.058 -2.724 2.64 -2.724 h 0.04 c 1.535 0 2.484 1.05 2.484 2.326 v 0.118 c 0 0.975 -0.324 1.39 -0.639 1.39 c -0.232 0 -0.41 -0.148 -0.41 -0.42 v -2.19 h -0.906 v 0.569 h -0.03 c -0.084 -0.298 -0.368 -0.63 -0.954 -0.63 c -0.778 0 -1.259 0.555 -1.259 1.4 v 0.528 c 0 0.892 0.49 1.434 1.26 1.434 c 0.471 0 0.896 -0.227 1.014 -0.643 h 0.043 c 0.118 0.42 0.617 0.648 1.12 0.648 Z m -2.453 -1.588 v -0.227 c 0 -0.546 0.227 -0.791 0.573 -0.791 c 0.297 0 0.572 0.192 0.572 0.708 v 0.367 c 0 0.573 -0.253 0.744 -0.564 0.744 c -0.354 0 -0.581 -0.215 -0.581 -0.8 Z" stroke-linecap="round"/>
</g>
</g>
</g>
</svg>