<svg xmlns="http://www.w3.org/2000/svg" xmlns:xlink="http://www.w3.org/1999/xlink" version="1.1" width="1000" height="1000" viewBox="0 0 1000 1000" xml:space="preserve">
<desc>Created with Fabric.js 3.5.0</desc>
<defs>
</defs>
<rect x="0" y="0" width="100%" height="100%" fill="rgba(255,255,255,0)"/>
<g transform="matrix(1.3333 0 0 1.3333 499.9936 499.9942)" id="799699">
<path style="stroke: none; stroke-width: 1; stroke-dasharray: none; stroke-linecap: butt; stroke-dashoffset: 0; stroke-linejoin: miter; stroke-miterlimit: 4; is-custom-font: none; font-file-url: none; fill: rgb(241,167,142); fill-rule: nonzero; opacity: 1;" vector-effect="non-scaling-stroke" transform=" translate(-379.341, -376.8431)" d="m 571.05 352.15 c -0.011719 -11.098 -4.4258 -21.734 -12.27 -29.582 c -7.8477 -7.8477 -18.484 -12.266 -29.582 -12.281 h -97.602 c 3.8516 -20.43 5.7891 -41.172 5.793 -61.961 c -0.011719 -12.016 -4.8008 -23.531 -13.316 -32.008 c -8.5156 -8.4766 -20.055 -13.215 -32.07 -13.168 c -12.016 0.046874 -23.516 4.8711 -31.965 13.414 c -8.5352 8.5859 -13.23 20.258 -13.023 32.363 c 0.34766 26.348 -0.69531 44.957 -17.809 62.844 c -7.5469 7.8945 -24.438 19.258 -33.844 25.258 v -0.58594 h -107.73 v 211.14 h 80.512 c 6.5703 -0.023437 12.91 -2.4258 17.844 -6.7656 s 8.1289 -10.32 8.9922 -16.832 c 10.117 15.297 28.84 26.551 62.07 26.551 h 123.13 c 13.938 0.003906 26.961 -6.9258 34.738 -18.488 c 7.7773 -11.562 9.2891 -26.238 4.0352 -39.145 c 8.5703 -4.9453 15.109 -12.77 18.457 -22.086 c 3.3438 -9.3125 3.2734 -19.512 -0.19531 -28.777 c 10.098 -5.0586 17.711 -13.992 21.105 -24.762 c 3.3945 -10.77 2.2773 -22.453 -3.0938 -32.383 c 10 -7.9258 15.828 -19.984 15.82 -32.742 z m -293.97 159.07 c -0.65625 5 -3.1602 9.5742 -7.0195 12.816 c -3.8633 3.2422 -8.7969 4.9219 -13.836 4.7031 c -5.0352 -0.21484 -9.8086 -2.3125 -13.375 -5.875 c -3.5703 -3.5625 -5.6719 -8.332 -5.8945 -13.371 c -0.22656 -5.0352 1.4453 -9.9727 4.6836 -13.84 c 3.2383 -3.8633 7.8047 -6.375 12.805 -7.0391 c 6.2109 -0.80859 12.445 1.3086 16.879 5.7344 c 4.4336 4.4258 6.5586 10.66 5.7578 16.871 z m 252.12 -146.68 h -1.2773 c -4.6328 0.015626 -8.9922 2.207 -11.766 5.9219 c -2.7695 3.7148 -3.6328 8.5195 -2.3242 12.965 c 1.3086 4.4453 4.6328 8.0195 8.9766 9.6406 c 5.6367 2.0898 8.9531 7.9336 7.8633 13.848 c -1.0898 5.9141 -6.2695 10.188 -12.285 10.133 h -9.5977 c -4.5508 0 -8.8438 2.1016 -11.633 5.6992 c -2.7891 3.5938 -3.7617 8.2773 -2.6328 12.684 c 1.1328 4.4102 4.2344 8.0469 8.4102 9.8555 c 5.4766 2.293 8.5586 8.1406 7.3594 13.957 c -1.1992 5.8125 -6.3477 9.9609 -12.285 9.8984 h -6.9922 c -4.5469 0 -8.8359 2.1016 -11.625 5.6914 c -2.7891 3.5859 -3.7617 8.2617 -2.6406 12.668 s 4.2109 8.0469 8.375 9.8633 c 5.3281 2.375 8.2773 8.1406 7.0898 13.848 c -1.1914 5.707 -6.1992 9.8164 -12.031 9.8633 h -123.05 c -26.047 0 -43.395 -6.5508 -43.395 -38.488 v -122.37 c 9.8516 -6.3125 27.184 -18.105 36.703 -28.066 c 24.723 -25.824 26.379 -53.152 25.969 -83.664 l -0.003906 -0.003906 c -0.035156 -5.6367 2.9414 -10.871 7.8047 -13.723 c 4.8672 -2.8516 10.883 -2.8906 15.789 -0.10156 c 4.9023 2.7891 7.9414 7.9805 7.9805 13.621 c -0.007813 24.652 -2.9961 49.215 -8.9023 73.152 c -1.0859 4.3789 -0.10156 9.0156 2.6719 12.578 c 2.7695 3.5625 7.0195 5.6562 11.535 5.6875 h 115.89 h -0.003906 c 3.3672 -0.12109 6.6367 1.1328 9.0586 3.4688 c 2.4258 2.3398 3.793 5.5625 3.793 8.9297 s -1.3672 6.5898 -3.793 8.9297 c -2.4219 2.3359 -5.6914 3.5898 -9.0586 3.4688 z" stroke-linecap="round"/>
</g>
</svg>