<svg xmlns="http://www.w3.org/2000/svg" xmlns:xlink="http://www.w3.org/1999/xlink" version="1.1" width="1000" height="1000" viewBox="0 0 1000 1000" xml:space="preserve">
<desc>Created with Fabric.js 3.5.0</desc>
<defs>
</defs>
<rect x="0" y="0" width="100%" height="100%" fill="rgba(128,50,50,0)"/>
<g transform="matrix(6.1107 0 0 6.1107 483.2459 499.9979)" id="961589" clip-path="url(#CLIPPATH_2)">
<clipPath id="CLIPPATH_2">
	<rect transform="matrix(1 0 0 1 0.0001 0)" id="clip0_302_96" x="-79" y="-79" rx="0" ry="0" width="158" height="158"/>
</clipPath>
<path style="stroke: none; stroke-width: 1; stroke-dasharray: none; stroke-linecap: butt; stroke-dashoffset: 0; stroke-linejoin: miter; stroke-miterlimit: 4; is-custom-font: none; font-file-url: none; fill: rgb(241,167,142); fill-rule: nonzero; opacity: 1;" vector-effect="non-scaling-stroke" transform=" translate(-78.9999, -79)" d="M 106.124 -0.0000765851 H 51.8754 C 51.8303 -0.0000765851 51.7848 -0.0000765851 51.7397 -0.0000765851 C 23.1271 0.0374314 -0.0376151 23.2628 -0.000107103 51.8754 V 106.124 C -0.000107103 106.17 -0.000107103 106.215 -0.000107103 106.26 C 0.0374009 134.873 23.2628 158.037 51.8754 158 H 106.124 C 106.17 158 106.215 158 106.26 158 C 134.873 157.962 158.037 134.737 158 106.124 V 51.8754 C 158 51.8303 158 51.7848 158 51.7397 C 157.962 23.1271 134.737 -0.0375846 106.124 -0.0000765851 Z" stroke-linecap="round"/>
</g>
<g transform="matrix(1 0 0 1 483.2479 592.03)" style="" id="182419">
		
<path xml:space="preserve" font-family="Libre Baskerville" font-size="962" font-style="normal" font-weight="bold" style="stroke: none; stroke-width: 1; stroke-dasharray: none; stroke-linecap: butt; stroke-dashoffset: 0; stroke-linejoin: miter; stroke-miterlimit: 4; is-custom-font: none; font-file-url: none; fill: rgb(255,255,255); fill-rule: nonzero; opacity: 1; white-space: pre;" d="M-69.26 36.69L-268.40-317.33Q-282.83-342.34-294.85-358.69Q-306.88-375.05-319.38-384.18Q-331.89-393.32-346.32-396.69Q-360.75-400.06-379.03-400.06L-379.03-400.06L-379.03-438.54L-55.80-438.54L-55.80-400.06Q-96.20-400.06-112.55-392.36Q-128.91-384.67-128.91-369.27L-128.91-369.27Q-128.91-359.65-123.14-346.19Q-117.36-332.72-104.86-309.63L-104.86-309.63L32.71-47.00L36.56-47.00L157.77-249.02Q189.51-302.90 202.02-329.35Q214.53-355.81 214.53-371.20L214.53-371.20Q214.53-387.55 199.62-393.80Q184.70-400.06 144.30-400.06L144.30-400.06L144.30-438.54L385.76-438.54L385.76-400.06Q364.60-400.06 347.28-393.32Q329.97-386.59 311.21-366.87Q292.45-347.15 268.88-312.03Q245.31-276.92 212.60-220.16L212.60-220.16L72.15 20.34L72.15 118.46Q72.15 166.56 76.48 195.42Q80.81 224.28 91.87 239.19Q102.93 254.10 122.17 258.91Q141.41 263.72 172.20 263.72L172.20 263.72L172.20 302.20L-170.27 302.20L-170.27 263.72Q-140.45 263.72-120.73 258.91Q-101.01 254.10-89.47 239.67Q-77.92 225.24-73.59 197.83Q-69.26 170.41-69.26 125.19L-69.26 125.19L-69.26 36.69Z"/></g>
</svg>