<svg xmlns="http://www.w3.org/2000/svg" xmlns:xlink="http://www.w3.org/1999/xlink" version="1.1" width="1000" height="1000" viewBox="0 0 1000 1000" xml:space="preserve">
<desc>Created with Fabric.js 3.5.0</desc>
<defs>
</defs>
<rect x="0" y="0" width="100%" height="100%" fill="rgba(255,255,255,0)"/>
<g transform="matrix(0.9973 0 0 0.9973 499.9797 499.9797)" id="288173">
<g style="" vector-effect="non-scaling-stroke">
		<g transform="matrix(1.3333 0 0 1.3333 0.0001 0.0001)">
<path style="stroke: none; stroke-width: 1; stroke-dasharray: none; stroke-linecap: butt; stroke-dashoffset: 0; stroke-linejoin: miter; stroke-miterlimit: 4; is-custom-font: none; font-file-url: none; fill: rgb(241,167,142); fill-rule: nonzero; opacity: 1;" transform=" translate(-376.005, -376.005)" d="m 494.4 178.68 h -236.79 c -20.926 0.023438 -40.988 8.3477 -55.785 23.145 c -14.797 14.797 -23.121 34.859 -23.145 55.785 v 236.79 c 0.023438 20.926 8.3477 40.988 23.145 55.785 c 14.797 14.797 34.859 23.121 55.785 23.145 h 236.79 c 20.926 -0.023437 40.988 -8.3477 55.785 -23.145 s 23.121 -34.859 23.145 -55.785 v -236.79 c -0.023437 -20.926 -8.3477 -40.988 -23.145 -55.789 c -14.797 -14.797 -34.859 -23.117 -55.785 -23.141 z m 39.465 315.72 v 0.003907 c -0.011719 10.461 -4.1758 20.492 -11.574 27.891 c -7.3984 7.3984 -17.43 11.562 -27.891 11.574 h -236.79 c -10.461 -0.011719 -20.496 -4.1719 -27.895 -11.57 c -7.3984 -7.4023 -11.559 -17.434 -11.57 -27.895 v -236.79 c 0.011719 -10.461 4.1719 -20.496 11.57 -27.895 c 7.3984 -7.3984 17.434 -11.559 27.895 -11.57 h 236.79 c 10.461 0.011719 20.492 4.1758 27.891 11.574 c 7.3984 7.3984 11.562 17.43 11.574 27.891 z" stroke-linecap="round"/>
</g>
		<g transform="matrix(1.3333 0 0 1.3333 0.013 -0.0096)">
<path style="stroke: none; stroke-width: 1; stroke-dasharray: none; stroke-linecap: butt; stroke-dashoffset: 0; stroke-linejoin: miter; stroke-miterlimit: 4; is-custom-font: none; font-file-url: none; fill: rgb(241,167,142); fill-rule: nonzero; opacity: 1;" transform=" translate(-376.012, -375.995)" d="m 376 287.96 c -23.348 0.003906 -45.738 9.2812 -62.246 25.793 c -16.508 16.512 -25.777 38.902 -25.777 62.25 c 0 23.348 9.2773 45.738 25.789 62.246 c 16.508 16.508 38.902 25.781 62.25 25.781 s 45.738 -9.2734 62.246 -25.785 c 16.508 -16.508 25.785 -38.902 25.785 -62.25 c -0.027344 -23.34 -9.3125 -45.719 -25.82 -62.223 c -16.504 -16.504 -38.883 -25.785 -62.227 -25.812 z m 0 136.61 c -12.879 0 -25.23 -5.1211 -34.34 -14.23 c -9.1055 -9.1094 -14.219 -21.465 -14.219 -34.344 c 0 -12.883 5.1211 -25.234 14.23 -34.344 c 9.1094 -9.1055 21.461 -14.223 34.344 -14.219 c 12.879 0 25.234 5.1172 34.34 14.227 c 9.1094 9.1055 14.227 21.461 14.227 34.34 c -0.015625 12.879 -5.1367 25.227 -14.246 34.332 c -9.1055 9.1094 -21.457 14.227 -34.336 14.238 z" stroke-linecap="round"/>
</g>
</g>
</g>
</svg>