<svg xmlns="http://www.w3.org/2000/svg" xmlns:xlink="http://www.w3.org/1999/xlink" version="1.1" width="1000" height="1000" viewBox="0 0 1000 1000" xml:space="preserve">
<desc>Created with Fabric.js 3.5.0</desc>
<defs>
</defs>
<rect x="0" y="0" width="100%" height="100%" fill="rgba(255,255,255,0)"/>
<g transform="matrix(56.8164 0 0 56.8164 499.9999 500)" id="346777">
<path style="stroke: none; stroke-width: 1; stroke-dasharray: none; stroke-linecap: butt; stroke-dashoffset: 0; stroke-linejoin: miter; stroke-miterlimit: 4; is-custom-font: none; font-file-url: none; fill: rgb(241,167,142); fill-rule: nonzero; opacity: 1;" vector-effect="non-scaling-stroke" transform=" translate(-7.9998, -7.9999)" d="M 3.654 1.328 a 0.678 0.678 0 0 0 -1.015 -0.063 L 1.605 2.3 c -0.483 0.484 -0.661 1.169 -0.45 1.77 a 17.568 17.568 0 0 0 4.168 6.608 a 17.569 17.569 0 0 0 6.608 4.168 c 0.601 0.211 1.286 0.033 1.77 -0.45 l 1.034 -1.034 a 0.678 0.678 0 0 0 -0.063 -1.015 l -2.307 -1.794 a 0.678 0.678 0 0 0 -0.58 -0.122 l -2.19 0.547 a 1.745 1.745 0 0 1 -1.657 -0.459 L 5.482 8.062 a 1.745 1.745 0 0 1 -0.46 -1.657 l 0.548 -2.19 a 0.678 0.678 0 0 0 -0.122 -0.58 L 3.654 1.328 z M 1.884 0.511 a 1.745 1.745 0 0 1 2.612 0.163 L 6.29 2.98 c 0.329 0.423 0.445 0.974 0.315 1.494 l -0.547 2.19 a 0.678 0.678 0 0 0 0.178 0.643 l 2.457 2.457 a 0.678 0.678 0 0 0 0.644 0.178 l 2.189 -0.547 a 1.745 1.745 0 0 1 1.494 0.315 l 2.306 1.794 c 0.829 0.645 0.905 1.87 0.163 2.611 l -1.034 1.034 c -0.74 0.74 -1.846 1.065 -2.877 0.702 a 18.634 18.634 0 0 1 -7.01 -4.42 a 18.634 18.634 0 0 1 -4.42 -7.009 c -0.362 -1.03 -0.037 -2.137 0.703 -2.877 L 1.885 0.511 z" stroke-linecap="round"/>
</g>
</svg>