<svg xmlns="http://www.w3.org/2000/svg" xmlns:xlink="http://www.w3.org/1999/xlink" version="1.1" width="1000" height="1000" viewBox="0 0 1000 1000" xml:space="preserve">
<desc>Created with Fabric.js 3.5.0</desc>
<defs>
</defs>
<rect x="0" y="0" width="100%" height="100%" fill="rgba(255,255,255,0)"/>
<g transform="matrix(1.3333 0 0 1.3333 499.9948 499.9934)" id="927646">
<path style="stroke: none; stroke-width: 1; stroke-dasharray: none; stroke-linecap: butt; stroke-dashoffset: 0; stroke-linejoin: miter; stroke-miterlimit: 4; is-custom-font: none; font-file-url: none; fill: rgb(241,167,142); fill-rule: nonzero; opacity: 1;" vector-effect="non-scaling-stroke" transform=" translate(-376.3792, -376.3833)" d="m 526.96 223.57 c -2.2188 -1.4805 -4.4414 -1.4805 -6.6602 -0.73828 c -18.5 8.1406 -37.738 2.2188 -48.84 -12.578 c -5.1797 -6.6602 -8.1406 -15.539 -8.1406 -23.68 c 0 -2.2188 -0.73828 -3.6992 -2.2188 -5.1797 c -1.4805 -1.4805 -2.9609 -2.2188 -5.1797 -2.2188 h -75.477 c -4.4414 0 -7.3984 2.9609 -7.3984 7.3984 v 262.69 v 1.4805 c -1.4805 13.32 -11.84 22.938 -25.16 22.938 c -14.059 0 -25.898 -11.84 -25.898 -25.898 c 0 -13.32 9.6211 -23.68 22.938 -25.16 c 3.6992 -0.73828 6.6602 -3.6992 6.6602 -7.3984 v -85.836 c 0 -4.4414 -2.9609 -7.3984 -7.3984 -7.3984 h -1.4805 c -68.078 2.9609 -120.61 57.719 -120.61 125.8 c 0 69.559 56.238 125.8 125.8 125.8 c 65.117 0 119.88 -50.316 125.05 -114.7 c 0.73828 -0.73828 0.73828 -2.2188 0.73828 -2.9609 l -0.003907 -142.82 c 16.281 3.6992 33.297 5.1797 51.059 2.2188 c 3.6992 -0.73828 5.918 -3.6992 5.918 -7.3984 l 0.003906 -78.438 c 0 -2.2227 -1.4805 -4.4414 -3.6992 -5.9219 z m -11.102 78.438 c -17.02 1.4805 -32.559 0 -48.098 -5.1797 c -2.2188 -0.73828 -4.4414 0 -6.6602 0.73828 c -2.2188 1.4805 -2.9609 3.6992 -2.9609 5.918 v 149.47 c 0 0.73828 0 1.4805 -0.73828 2.2188 c -3.6992 57.719 -52.539 103.6 -110.25 103.6 c -61.418 0 -111 -49.578 -111 -111 c 0 -57.719 42.918 -105.07 99.895 -110.25 v 71.777 c -17.02 5.1797 -29.598 20.719 -29.598 38.477 c 0 22.199 18.5 40.699 40.699 40.699 c 19.98 0 37 -14.801 39.957 -34.039 c 0.73828 -0.73828 0.73828 -2.2188 0.73828 -2.9609 v -257.5 h 61.418 c 1.4805 9.6211 5.1797 17.758 10.359 25.16 c 12.578 17.02 34.777 25.898 56.238 20.719 z" stroke-linecap="round"/>
</g>
</svg>