<svg xmlns="http://www.w3.org/2000/svg" xmlns:xlink="http://www.w3.org/1999/xlink" version="1.1" width="1000" height="1000" viewBox="0 0 1000 1000" xml:space="preserve">
<desc>Created with Fabric.js 3.5.0</desc>
<defs>
</defs>
<rect x="0" y="0" width="100%" height="100%" fill="rgba(255,255,255,0)"/>
<g transform="matrix(1 0 0 1 500.0055 499.9991)" id="215642">
<g style="" vector-effect="non-scaling-stroke">
		<g transform="matrix(0.9309 0 0 0.9309 0.0041 0.0028)">
<path style="stroke: none; stroke-width: 1; stroke-dasharray: none; stroke-linecap: butt; stroke-dashoffset: 0; stroke-linejoin: miter; stroke-miterlimit: 4; is-custom-font: none; font-file-url: none; fill: rgb(241,167,142); fill-rule: evenodd; opacity: 1;" transform=" translate(-376.0055, -375.9954)" d="m 433.03 433.02 h -68.438 c -6.2734 0 -11.395 -5.1211 -11.395 -11.395 v -34.215 h 79.84 c 18.863 0 34.207 -15.359 34.207 -34.223 c 0 -18.855 -15.336 -34.215 -34.207 -34.215 l -79.848 0.003906 v -34.215 c 0 -18.863 -15.336 -34.207 -34.207 -34.207 c -18.871 0 -34.215 15.336 -34.215 34.207 v 136.86 c 0 44.016 35.809 79.816 79.816 79.816 h 68.438 c 18.863 0 34.207 -15.344 34.207 -34.215 c 0 -18.867 -15.336 -34.203 -34.199 -34.203 z m 0 45.617 h -68.438 c -31.426 0 -57.004 -25.582 -57.004 -57.02 v -136.86 c 0 -6.2734 5.1133 -11.395 11.395 -11.395 c 6.2969 0 11.418 5.1211 11.418 11.395 v 45.625 c 0 6.2969 5.1016 11.395 11.395 11.395 h 91.227 c 6.2969 0 11.395 5.1133 11.395 11.41 c 0 6.2812 -5.1016 11.395 -11.395 11.395 h -91.227 c -6.2969 0 -11.395 5.1055 -11.395 11.395 v 45.625 c 0 18.863 15.336 34.207 34.184 34.207 h 68.438 c 6.2734 0 11.395 5.1211 11.395 11.395 c 0 6.3164 -5.1133 11.43 -11.387 11.43 z" stroke-linecap="round"/>
</g>
		<g transform="matrix(0.9309 0 0 0.9309 0.0086 0.0086)">
<path style="stroke: none; stroke-width: 1; stroke-dasharray: none; stroke-linecap: butt; stroke-dashoffset: 0; stroke-linejoin: miter; stroke-miterlimit: 4; is-custom-font: none; font-file-url: none; fill: rgb(241,167,142); fill-rule: evenodd; opacity: 1;" transform=" translate(-376.006, -375.999)" d="m 490.05 201.15 h -228.08 c -33.535 0 -60.824 27.27 -60.824 60.816 v 228.07 c 0 33.531 27.285 60.816 60.824 60.816 h 228.08 c 33.531 0 60.816 -27.285 60.816 -60.816 l -0.003906 -228.07 c 0.007812 -33.551 -27.277 -60.82 -60.809 -60.82 z m 38.004 288.88 c 0 20.961 -17.043 38.012 -38.004 38.012 h -228.08 c -20.961 0 -38.012 -17.051 -38.012 -38.012 v -228.06 c 0 -20.953 17.051 -38.023 38.012 -38.023 h 228.08 c 20.961 0 38.004 17.062 38.004 38.023 l -0.003906 228.06 z" stroke-linecap="round"/>
</g>
</g>
</g>
</svg>