<svg xmlns="http://www.w3.org/2000/svg" xmlns:xlink="http://www.w3.org/1999/xlink" version="1.1" width="1000" height="1000" viewBox="0 0 1000 1000" xml:space="preserve">
<desc>Created with Fabric.js 3.5.0</desc>
<defs>
</defs>
<rect x="0" y="0" width="100%" height="100%" fill="rgba(255,255,255,0)"/>
<g transform="matrix(2.0478 0 0 2.0478 500.0067 500.0096)" id="225583">
<path style="stroke: none; stroke-width: 1; stroke-dasharray: none; stroke-linecap: butt; stroke-dashoffset: 0; stroke-linejoin: miter; stroke-miterlimit: 4; is-custom-font: none; font-file-url: none; fill: rgb(241,167,142); fill-rule: nonzero; opacity: 1;" vector-effect="non-scaling-stroke" transform=" translate(-381.2872, -377.7543)" d="m 331.6 265.01 v 221.99 c 0 3.9258 -1.5586 7.6914 -4.332 10.465 c -2.7773 2.7773 -6.5391 4.3359 -10.465 4.3359 h -73.996 c -3.9258 0 -7.6914 -1.5586 -10.465 -4.3359 c -2.7773 -2.7734 -4.3359 -6.5391 -4.3359 -10.465 v -221.99 c 0 -3.9258 1.5586 -7.6914 4.3359 -10.465 c 2.7734 -2.7773 6.5391 -4.3359 10.465 -4.3359 h 73.996 c 3.9258 0 7.6875 1.5586 10.465 4.3359 c 2.7734 2.7734 4.332 6.5391 4.332 10.465 z m 127.4 -109.15 c 27.91 0.39062 48.52 10.543 61.18 30.34 c 45.758 71.52 -31.449 247.02 -40.508 267.01 l 6.1406 116.61 l 0.003906 -0.003906 c 0.39844 7.793 -2.418 15.402 -7.793 21.059 c -5.3711 5.6523 -12.828 8.8516 -20.629 8.8516 c -7.8008 0 -15.258 -3.1992 -20.629 -8.8516 c -5.375 -5.6562 -8.1914 -13.266 -7.793 -21.059 l 6.1406 -116.61 c -9.0586 -19.98 -86.266 -195.49 -40.508 -267.01 c 12.66 -19.785 33.297 -29.938 61.18 -30.34 c 0.5625 -0.042969 1.1016 -0.074219 1.6055 -0.074219 c 0.50781 0.003906 1.0469 0.035156 1.6094 0.078125 z m -16.359 277.41 c -7.6719 -57.324 -25.633 -210.75 -5.707 -260.21 c -12.336 2.8438 -23.059 10.422 -29.855 21.102 c -35.84 56 16.277 193.02 35.562 239.11 z m 35.215 -260.21 c 19.926 49.461 1.9688 202.89 -5.707 260.21 c 19.238 -46.086 71.398 -183.11 35.562 -239.11 v -0.003906 c -6.7969 -10.68 -17.52 -18.258 -29.855 -21.102 z m -16.969 -0.45312 c -1.7461 -2.0195 -2.9609 -2.0195 -3.4922 -2.0195 s -1.7461 0 -3.4922 2.0195 c -20.422 23.633 -9.7734 161.65 3.4922 259.54 c 13.266 -97.887 23.914 -235.9 3.4922 -259.54 z m -181.09 -11.195 c -5.7109 0 -11.164 2.3945 -15.031 6.5977 c -3.8672 4.2031 -5.7969 9.8359 -5.3242 15.527 l 4.3203 51.871 h 32.07 l 4.3203 -51.871 c 0.47656 -5.6914 -1.457 -11.324 -5.3242 -15.527 c -3.8672 -4.2031 -9.3164 -6.5977 -15.031 -6.5977 z m 20.355 407.06 l -4.3203 -51.871 h -32.07 l -4.3203 51.871 c -0.51172 5.7109 1.4023 11.375 5.2734 15.609 c 3.8672 4.2305 9.3398 6.6406 15.074 6.6406 c 5.7383 0 11.207 -2.4102 15.078 -6.6406 c 3.8711 -4.2344 5.7852 -9.8984 5.2734 -15.609 z" stroke-linecap="round"/>
</g>
</svg>